<svg width="57" height="57" viewBox="0 0 57 57" fill="none" xmlns="http://www.w3.org/2000/svg">
<path d="M27.686 56.186C42.9766 56.6356 55.7365 44.6046 56.186 29.314C56.6356 14.0234 44.6045 1.26351 29.314 0.813967C14.0234 0.364425 1.2635 12.3955 0.813963 27.686C0.364421 42.9766 12.3955 55.7365 27.686 56.186Z" fill="black"/>
<path d="M28.8919 14.9911C21.2404 14.7662 14.8611 20.7863 14.6363 28.4324C14.4564 34.5536 18.2728 39.8614 23.7184 41.8508C24.4067 42.001 24.6735 41.5812 24.6843 41.2135C24.694 40.8837 24.7087 40.0128 24.7372 38.8608C20.8625 39.5858 20.1253 36.8635 20.1253 36.8635C19.5397 35.2443 18.6438 34.7904 18.6438 34.7904C17.4145 33.8937 18.7659 33.9497 18.7659 33.9497C20.1528 34.0879 20.8436 35.4396 20.8436 35.4396C22.0142 37.5955 24.0438 37.0436 24.8437 36.71C24.9945 35.816 25.3693 35.2154 25.7743 34.881C22.7076 34.4444 19.5089 33.1597 19.6651 27.8496C19.7096 26.3355 20.2812 25.1184 21.2018 24.1767C21.0554 23.8206 20.6316 22.401 21.4286 20.5139C21.4286 20.5139 22.6022 20.175 25.1936 22.048C26.3112 21.7724 27.4945 21.6556 28.668 21.6847C29.8467 21.7248 31.0157 21.9107 32.1151 22.2515C34.8012 20.5391 35.9475 20.9408 35.9475 20.9408C36.6376 22.8716 36.1259 24.2637 35.9803 24.6112C36.8333 25.605 37.3376 26.8592 37.2933 28.3679C37.1368 33.6888 33.8633 34.767 30.771 35.017C31.2455 35.4477 31.6693 36.3099 31.6312 37.6077C31.5766 39.4624 31.5167 40.949 31.5035 41.3978C31.4929 41.7601 31.7235 42.1998 32.4358 42.0855C38.0371 40.4371 42.1534 35.3625 42.3332 29.2467C42.558 21.6006 36.538 15.2159 28.8919 14.9911Z" fill="white"/>
</svg>
