<svg width="56" height="56" viewBox="0 0 56 56" fill="none" xmlns="http://www.w3.org/2000/svg">
<path d="M28.2556 55.6538C43.5528 55.6538 55.9536 43.253 55.9536 27.9558C55.9536 12.6586 43.5528 0.257812 28.2556 0.257812C12.9584 0.257812 0.557617 12.6586 0.557617 27.9558C0.557617 43.253 12.9584 55.6538 28.2556 55.6538Z" fill="#E4405F"/>
<path d="M28.2557 14.1074C24.4959 14.1074 24.0253 14.1237 22.5484 14.1886C21.0715 14.2589 20.0707 14.4915 19.1889 14.8323C18.2801 15.184 17.5065 15.66 16.7329 16.4282C15.9593 17.1964 15.4887 17.97 15.137 18.8842C14.7962 19.766 14.5636 20.7723 14.4933 22.2437C14.4229 23.7206 14.4121 24.1912 14.4121 27.951C14.4121 31.7108 14.4283 32.1815 14.4933 33.6583C14.5636 35.1298 14.7962 36.136 15.137 37.0178C15.4887 37.9266 15.9647 38.7002 16.7329 39.4738C17.5011 40.242 18.2747 40.7181 19.1889 41.0697C20.0707 41.4105 21.0769 41.6431 22.5484 41.7135C24.0253 41.7838 24.4959 41.7946 28.2557 41.7946C32.0155 41.7946 32.4861 41.7784 33.963 41.7135C35.4345 41.6431 36.4407 41.4105 37.3225 41.0697C38.2313 40.7181 39.0049 40.242 39.7785 39.4738C40.5467 38.7056 41.0227 37.932 41.3744 37.0178C41.7152 36.136 41.9478 35.1298 42.0181 33.6583C42.0885 32.1815 42.0993 31.7108 42.0993 27.951C42.0993 24.1912 42.0831 23.7206 42.0181 22.2437C41.9478 20.7723 41.7152 19.766 41.3744 18.8842C41.0227 17.9754 40.5467 17.2018 39.7785 16.4282C39.0103 15.66 38.2367 15.184 37.3225 14.8323C36.4407 14.4915 35.4345 14.2589 33.963 14.1886C32.4861 14.1237 32.0155 14.1074 28.2557 14.1074ZM28.2557 16.6013C31.9506 16.6013 32.3942 16.6176 33.8548 16.6825C35.2073 16.7474 35.9376 16.9692 36.4244 17.1639C37.0736 17.4128 37.5335 17.7157 38.0203 18.1972C38.5018 18.6841 38.8047 19.1439 39.0536 19.7931C39.2429 20.28 39.4701 21.0103 39.5297 22.3627C39.5946 23.8234 39.6108 24.2616 39.6108 27.9618C39.6108 31.6621 39.5946 32.1003 39.5242 33.5609C39.4539 34.9134 39.2267 35.6437 39.0374 36.1306C38.7777 36.7798 38.4856 37.2396 37.9987 37.7265C37.5172 38.2079 37.0466 38.5109 36.4082 38.7597C35.9213 38.9491 35.1802 39.1763 33.8278 39.2358C32.3563 39.3007 31.9235 39.3169 28.2178 39.3169C24.5121 39.3169 24.0794 39.3007 22.6079 39.2304C21.2555 39.1601 20.5143 38.9328 20.0274 38.7435C19.3729 38.4838 18.9184 38.1917 18.437 37.7048C17.9501 37.2234 17.6417 36.7527 17.3983 36.1144C17.209 35.6275 16.9817 34.8863 16.9114 33.5339C16.8573 32.0787 16.8411 31.6297 16.8411 27.9456C16.8411 24.2561 16.8573 23.8071 16.9114 22.3357C16.9817 20.9832 17.2035 20.2421 17.3983 19.7552C17.6417 19.0952 17.9501 18.6462 18.437 18.1593C18.9184 17.6779 19.3729 17.3641 20.0274 17.1207C20.5143 16.9313 21.2392 16.7041 22.5917 16.6338C24.0631 16.5797 24.4959 16.5635 28.2016 16.5635L28.2557 16.6013ZM28.2557 20.8426C24.3282 20.8426 21.1419 24.0289 21.1419 27.9564C21.1419 31.8839 24.3282 35.0703 28.2557 35.0703C32.1832 35.0703 35.3695 31.8839 35.3695 27.9564C35.3695 24.0289 32.1832 20.8426 28.2557 20.8426ZM28.2557 32.571C25.7077 32.571 23.6412 30.5044 23.6412 27.9564C23.6412 25.4084 25.7077 23.3419 28.2557 23.3419C30.8037 23.3419 32.8702 25.4084 32.8702 27.9564C32.8702 30.5044 30.8037 32.571 28.2557 32.571ZM37.3117 20.5667C37.3117 21.4863 36.5651 22.2275 35.6509 22.2275C34.7312 22.2275 33.9901 21.4809 33.9901 20.5667C33.9901 19.6524 34.7366 18.9059 35.6509 18.9059C36.5651 18.9005 37.3117 19.647 37.3117 20.5667Z" fill="white"/>
</svg>
