<svg width="56" height="56" viewBox="0 0 56 56" fill="none" xmlns="http://www.w3.org/2000/svg">
<path d="M28.0247 55.98C43.3218 55.98 55.7227 43.5792 55.7227 28.282C55.7227 12.9848 43.3218 0.583984 28.0247 0.583984C12.7275 0.583984 0.32666 12.9848 0.32666 28.282C0.32666 43.5792 12.7275 55.98 28.0247 55.98Z" fill="#0A66C2"/>
<path d="M37.8219 38.0851H33.7104V31.6475C33.7104 30.1111 33.678 28.1365 31.5682 28.1365C29.4259 28.1365 29.0959 29.8081 29.0959 31.5339V38.0851H24.9845V24.842H28.9336V26.6488H28.9877C29.5395 25.6102 30.8811 24.512 32.8828 24.512C37.0483 24.512 37.8165 27.2547 37.8165 30.8198L37.8219 38.0851ZM20.3483 23.0297C19.0229 23.0297 17.9626 21.9586 17.9626 20.644C17.9626 19.3294 19.0283 18.2583 20.3483 18.2583C21.6683 18.2583 22.734 19.3294 22.734 20.644C22.734 21.9586 21.6629 23.0297 20.3483 23.0297ZM22.4094 38.0851H18.2872V24.842H22.4094V38.0851ZM39.8776 14.4336H16.2261C15.0954 14.4336 14.1758 15.3262 14.1758 16.4352V40.1841C14.1758 41.2877 15.09 42.1857 16.2261 42.1857H39.8722C41.0028 42.1857 41.9279 41.2931 41.9279 40.1841V16.4352C41.9279 15.3262 41.0028 14.4336 39.8776 14.4336Z" fill="white"/>
</svg>
