<svg width="56" height="57" viewBox="0 0 56 57" fill="none" xmlns="http://www.w3.org/2000/svg">
<path d="M28.0247 56.3257C43.3218 56.3257 55.7227 43.9249 55.7227 28.6277C55.7227 13.3305 43.3218 0.929688 28.0247 0.929688C12.7275 0.929688 0.32666 13.3305 0.32666 28.6277C0.32666 43.9249 12.7275 56.3257 28.0247 56.3257Z" fill="#2BAB47"/>
<path d="M37.6918 17.5801H18.3573C16.0689 17.5801 14.2134 19.4356 14.2134 21.724V35.5351C14.2134 37.8234 16.0689 39.679 18.3573 39.679H37.6918C39.9801 39.679 41.8356 37.8234 41.8356 35.5351V21.7185C41.8356 19.4302 39.9801 17.5801 37.6918 17.5801ZM37.1291 20.3391L29.0037 28.4591C28.4681 29.0001 27.5917 29.0055 27.0508 28.4645L27.0453 28.4591L18.9199 20.3391H37.1291ZM39.0767 35.5351C39.0767 36.2979 38.4599 36.9146 37.6972 36.9146H18.3573C17.5945 36.9146 16.9778 36.2979 16.9778 35.5351V22.2866L25.0978 30.4066C26.7153 32.0242 29.3337 32.0242 30.9566 30.4066L39.0767 22.2866V35.5351Z" fill="white"/>
</svg>
